<svg id="svg" version="1.1" xmlns="http://www.w3.org/2000/svg" xmlns:xlink="http://www.w3.org/1999/xlink" width="400"
     height="400" viewBox="0, 0, 400,400">
    <g id="svg">
        <path id="path0"
              d="M157.800 101.300 L 157.800 143.600 207.100 143.600 L 256.400 143.600 256.400 193.000 L 256.400 242.400 298.700 242.400 L 341.000 242.400 341.000 150.700 L 341.000 59.000 249.400 59.000 L 157.800 59.000 157.800 101.300 M59.000 200.100 L 59.000 242.400 101.300 242.400 L 143.600 242.400 143.600 200.100 L 143.600 157.800 101.300 157.800 L 59.000 157.800 59.000 200.100 M157.800 200.100 L 157.800 242.400 200.100 242.400 L 242.400 242.400 242.400 200.100 L 242.400 157.800 200.100 157.800 L 157.800 157.800 157.800 200.100 M157.800 298.700 L 157.800 341.000 200.100 341.000 L 242.400 341.000 242.400 298.700 L 242.400 256.400 200.100 256.400 L 157.800 256.400 157.800 298.700 "
              stroke="none" fill="#ffffff" fill-rule="evenodd"/>
        <path id="path2"
              d="M16.023 0.309 C 7.952 2.060,1.902 8.140,0.311 16.100 C 0.019 17.560,-0.004 33.659,0.046 200.700 L 0.100 383.700 0.651 385.457 C 3.013 392.987,8.678 398.205,16.100 399.689 C 17.560 399.981,33.659 400.004,200.700 399.954 L 383.700 399.900 385.457 399.349 C 392.987 396.987,398.205 391.322,399.689 383.900 C 399.981 382.440,400.004 366.341,399.954 199.300 L 399.900 16.300 399.349 14.543 C 396.995 7.038,391.371 1.840,383.958 0.317 C 381.763 -0.134,18.101 -0.142,16.023 0.309 M341.000 150.700 L 341.000 242.400 298.700 242.400 L 256.400 242.400 256.400 193.100 L 256.400 143.800 207.100 143.800 L 157.800 143.800 157.800 101.400 L 157.800 59.000 249.400 59.000 L 341.000 59.000 341.000 150.700 M143.600 200.100 L 143.600 242.400 101.300 242.400 L 59.000 242.400 59.000 200.100 L 59.000 157.800 101.300 157.800 L 143.600 157.800 143.600 200.100 M242.400 200.100 L 242.400 242.400 200.100 242.400 L 157.800 242.400 157.800 200.100 L 157.800 157.800 200.100 157.800 L 242.400 157.800 242.400 200.100 M242.400 298.700 L 242.400 341.000 200.100 341.000 L 157.800 341.000 157.800 298.700 L 157.800 256.400 200.100 256.400 L 242.400 256.400 242.400 298.700 "
              stroke="none" fill="#1b1e28" fill-rule="evenodd"/>
    </g>
</svg>